# xmcd
#
# Track frame offsets:
#	150
#	9917
#	18886
#	29578
#	39518
#	48940
#	59979
#	70765
#	79980
#	90956
#	101638
#	110909
#	119988
#	129474
#	141645
#	153806
#	163884
#	173163
#	184066
#	195509
#	204720
#	214551
#	225735
#	235846
#	246373
#	256539
#	267986
#	277602
#	286497
#	297453
#	305676
#	318500
#	330146
#	341030
#
# Disc length: 4725 seconds
#
# Revision: 0
# Processed by: cddbd v1.5.2PL0 Copyright (c) Steve Scherf et al.
# Submitted via: audiograbber 1.83.01
#
DISCID=f8127322
DTITLE=Jim Reeves - The Image Of Me
DYEAR=2000
DGENRE=Country
TTITLE0=Snowflake
TTITLE1=My Juanita
TTITLE2=Need Me
TTITLE3=Seabreeze
TTITLE4=My Mary
TTITLE5=Someday
TTITLE6=That's My Desire
TTITLE7=Sweet Sue, Just You
TTITLE8=The Gods Were Angry With Me
TTITLE9=The Image Of Me
TTITLE10=The Padre Of San Antone
TTITLE11=Wishful Thinking
TTITLE12=Theme Of Love
TTITLE13=Maria Elena
TTITLE14=I Don't See Me In Your Eyes Anymore
TTITLE15=I Heard A Heart Break Last Night
TTITLE16=I Know (And You Know)
TTITLE17=I Love You More
TTITLE18=Love Is No Excuse
TTITLE19=I'd Like To Be
TTITLE20=I'm Beginning To Forget You
TTITLE21=Just Call Me Lonesome
TTITLE22=Linda
TTITLE23=Look Behind You
TTITLE24=Making Believe
TTITLE25=I Care No More
TTITLE26=Margie
TTITLE27=Home
TTITLE28=Blues In My Heart
TTITLE29=Everywhere You Go
TTITLE30=Goodnight Irene
TTITLE31=Blue Without My Baby
TTITLE32=How's The World Treating You
TTITLE33=Have You Ever Been Lonely
EXTD=
EXTT0=
EXTT1=
EXTT2=
EXTT3=
EXTT4=
EXTT5=
EXTT6=
EXTT7=
EXTT8=
EXTT9=
EXTT10=
EXTT11=
EXTT12=
EXTT13=
EXTT14=
EXTT15=
EXTT16=
EXTT17=
EXTT18=
EXTT19=
EXTT20=
EXTT21=
EXTT22=
EXTT23=
EXTT24=
EXTT25=
EXTT26=
EXTT27=
EXTT28=
EXTT29=
EXTT30=
EXTT31=
EXTT32=
EXTT33=
PLAYORDER=
